<svg version="1.2" xmlns="http://www.w3.org/2000/svg" viewBox="0 0 1189 718" width="1189" height="718"><defs><linearGradient id="P" gradientUnits="userSpaceOnUse"/><linearGradient id="g1" x1="637.4" y1="574.8" x2="637.4" y2="523.3" href="#P"><stop stop-color="#808080" stop-opacity=".3"/><stop offset=".5" stop-color="#808080" stop-opacity=".1"/><stop offset="1" stop-color="#808080" stop-opacity=".1"/></linearGradient></defs><style>.a{fill:#f2f2f2}.b{fill:#ffa477}.c{fill:#ffa87e}.d{fill:#3f3d56}.e{opacity:.1}.f{fill:#ff7430}.g{fill:#ff5d0e}.h{opacity:.1;fill:#ff5d0e}.i{fill:#ff7938}.j{fill:#637ae4}.k{fill:url(#g1)}.l{fill:#2f2e41}.m{fill:#fbbebe}.n{fill:#567edd}</style><path class="a" d="m370 225v186h-186v-36c15.1 0 29.6-6 40.3-16.7 10.7-10.7 16.7-25.2 16.7-40.3 0-15.1-6-29.6-16.7-40.3-10.7-10.7-25.2-16.7-40.3-16.7v-36z"/><circle class="a" cx="184" cy="318" r="45"/><path class="a" d="m866 363.1v302.9h-73v-347.9l73 45z"/><path class="a" d="m681 666v-417l73 45v372h-73z"/><path class="a" d="m642 225v441h-365v-229h117v-234h-117v-203l365 225z"/><path class="a" d="m905 387.1l141 86.9-103 192h-38v-278.9z"/><path class="b" d="m1188.5 493.7c0 0-17 79.6-77.6 124.9-60.6 45.3-141.7 39.1-141.7 39.1 0 0 17-79.5 77.6-124.8 60.6-45.3 141.7-39.2 141.7-39.2z"/><path class="c" d="m969.2 657c0 0-0.9-0.5-2.5-1.5-1.3-0.8-3-1.9-5.2-3.3-19-12.6-68.3-49.5-88.6-106.4-25.3-71.3 4.6-146.9 4.6-146.9 0 0 65.2 36.6 92.9 102.4q1.8 4.3 3.4 8.7c22 62 2.2 127.4-3.3 143.3-0.8 2.4-1.3 3.7-1.3 3.7z"/><path fill-rule="evenodd" class="d" d="m969.5 659.2l-0.9-0.7c-0.7-0.4-66.4-48.7-83.3-122-16.9-73.2 21-145.4 21.4-146.1l0.5-1 1 0.6c0.6 0.5 66.4 48.8 83.3 122 16.9 73.3-21.1 145.5-21.5 146.2zm-61.5-266.8c-4.6 9-36.4 76-20.7 143.7 15.6 67.7 73.5 113.9 81.5 120.1 4.6-9.1 36.4-76 20.8-143.7-15.7-67.7-73.6-114-81.6-120.1z"/><path class="e" d="m970.5 653.3q-2.2 1.3-3.8 2.2c-2.3 1.3-3.6 1.9-3.6 1.9 0 0-0.6-1.8-1.6-5.2-5.1-18.5-19.8-82.7 4.8-141.8q1.9-4.6 4.1-9.1 1.8 4.3 3.4 8.7c22 62 2.2 127.4-3.3 143.3z"/><path class="f" d="m1072.1 554.1c-29.1 69.8-102 105.9-102 105.9 0 0-25.8-77.2 3.2-147 29.1-69.8 102-105.9 102-105.9 0 0 25.9 77.1-3.2 147z"/><path class="d" d="m969.9 657.6l103.9-247.8 1.9 0.8-104 247.7z"/><path class="g" d="m1177.5 680.5c0 9.4-53.9 17.9-142.9 24.5-16.2 1.2-33.6 2.3-52 3.4q-23.8 1.3-50 2.6-25.3 1.1-52.6 2.1c-57.4 2.1-120.9 3.6-188.4 4.3q-24.5 0.3-49.7 0.5-26.3 0.1-53.1 0.1c-325.2 0-588.8-16.8-588.8-37.5 0-20.7 263.6-37.5 588.8-37.5 139.9 0 268.5 3.1 369.5 8.3q5.6 0.3 11.1 0.6 0 0 0 0 0 0 0 0 0 0 0 0 0 0 0.1 0c127.2 6.9 208 17.1 208 28.6z"/><path class="h" d="m1177.5 680.5c0 9.4-53.9 17.9-142.9 24.5-16.2 1.2-33.6 2.3-52 3.4q-23.8 1.3-50 2.6-25.3 1.1-52.6 2.1c-57.4 2.1-120.9 3.6-188.4 4.3q-24.5 0.3-49.7 0.5-26.3 0.1-53.1 0.1c-325.2 0-588.8-16.8-588.8-37.5 0-20.7 263.6-37.5 588.8-37.5 139.9 0 268.5 3.1 369.5 8.3q5.6 0.3 11.1 0.6 0 0 0 0 0 0 0 0 0 0 0 0 0 0 0.1 0c127.2 6.9 208 17.1 208 28.6z"/><path class="i" d="m1132.3 673.9c0 7.8-50.3 15-133.3 20.5-15.1 1-31.3 1.9-48.4 2.8q-22.3 1.1-46.6 2.2-23.7 0.9-49.1 1.7c-53.5 1.8-112.7 3-175.6 3.7q-22.9 0.2-46.4 0.3-24.5 0.2-49.5 0.2c-303.2 0-548.9-14.1-548.9-31.4 0-17.3 245.7-31.4 548.9-31.4 67 0 131.2 0.7 190.6 2h0.2c56.1 1.2 108 2.9 153.7 5q5.2 0.2 10.3 0.5 0 0 0 0 0.1 0 0.1 0 0 0 0 0 0 0 0 0c21 1 40.6 2.1 58.7 3.3q0.3 0 0.6 0c83.9 5.5 134.7 12.7 134.7 20.6z"/><path class="e" d="m997 653.3c-7.5 48.3-54.3 32.1-111 32.1-59.9 0-108.8 18.1-111.8-40.9 56.1 1.2 108 2.9 153.7 5q5.2 0.2 10.3 0.5 0 0 0 0 0.1 0 0.1 0 0 0 0 0 0 0 0 0c21 1 40.6 2.1 58.7 3.3z"/><path class="j" d="m317.3 638.6c0 17.4-10.4 23.5-23.1 23.5q-0.5 0-0.9 0-0.9-0.1-1.8-0.1c-11.5-0.8-20.5-7.2-20.5-23.4 0-16.8 21.4-37.9 23.1-39.5q0.1-0.1 0.1-0.1c0 0 23.1 22.2 23.1 39.6z"/><path class="d" d="m293.3 659.4l8.5-11.8-8.5 13.1v1.4q-0.9-0.1-1.8-0.1l0.9-17.4v-0.2l0.1-1.7-8.5-13.1 8.5 11.9 0.1 0.4 0.6-13.2-7.2-13.6 7.3 11.3 0.8-27.3v-0.1 0.1l-0.2 21.5 7.3-8.5-7.3 10.4-0.2 11.8 6.8-11.4-6.8 13.1-0.1 6.5 9.8-15.7-9.9 18z"/><path class="g" d="m774 626.4c0-66.3 50.1-120 112-120 61.9 0 112 53.7 112 120 0 66.3-50.1 47-112 47-61.9 0-112 19.3-112-47z"/><path class="d" d="m151.4 547.3h2v135.2h-2z"/><circle class="d" cx="152.4" cy="547.3" r="19.1"/><path class="g" d="m152.4 630.6c0 0-2.7-58.7-58.7-51.9"/><path class="k" d="m709 569.6q0.8 2.6 1.7 5.2c-2.7-2.6-5.3-5.3-8-7.9 1.1 0.3 2.1 0.7 3.2 1.1q0.4 0.1 0.8 0.3 0.4 0.2 0.8 0.4 0.4 0.2 0.8 0.4 0.3 0.2 0.7 0.5zm-12.9-8.8c-15.8-13.7-34-24.3-50.1-37.5 8.8 4.3 17.4 9.4 25.9 14.2q15.1 8.6 30.6 16.5-0.7 1-1.4 2-0.7 0.9-1.5 1.7-0.8 0.9-1.7 1.7-0.9 0.7-1.8 1.4zm6.7-34.4q0.4-0.4 0.8-0.8 0 2.9 0 5.4-2.1-0.7-4.2-1.4 0.4-0.4 0.9-0.8 0.4-0.4 0.9-0.8 0.4-0.4 0.8-0.8 0.4-0.4 0.8-0.8zm-138.6 37q2.4-2.7 4.7-5.6 2.3-2.9 4.4-5.9 2.1-3 4-6.1 1.9-3.1 3.7-6.4c6.2 11 16.4 18.8 25 28-13.9-1.9-27.8-3.4-41.8-4z"/><path class="j" d="m117.3 664.6c0 17.4-10.4 23.5-23.1 23.5q-0.5 0-0.9 0-0.9-0.1-1.8-0.1c-11.5-0.8-20.5-7.2-20.5-23.4 0-16.8 21.4-37.9 23.1-39.5q0.1-0.1 0.1-0.1c0 0 23.1 22.2 23.1 39.6z"/><path  d="m93.3 685.4l8.5-11.8-8.5 13.1v1.4q-0.9-0.1-1.8-0.1l0.9-17.4v-0.2l0.1-1.7-8.5-13.1 8.5 11.9 0.1 0.4 0.6-13.2-7.2-13.6 7.3 11.3 0.8-27.3v-0.1 0.1l-0.2 21.5 7.3-8.5-7.3 10.4-0.2 11.8 6.8-11.4-6.8 13.1-0.1 6.5 9.8-15.7-9.9 18z"/><circle class="j" cx="129" cy="516" r="10"/><path class="g" d="m772 375c0 0 36.3-8 40.3 24 4 32-19.3 38-19.3 38l-14.7 4-57-15 8-23z"/><circle class="l" cx="758.9" cy="328.8" r="49"/><path class="g" d="m586.6 430.6l10 2 33.9 50.1-15 2-28.9-54.1z"/><path class="m" d="m361.1 633.5c3.7-0.2 7.9-1.3 11.4 0.2 3.4 1.4 6.7 4.5 9.3 7.1 0.7 0.7 7.2 9.3 6.9 9.4q-4.1 1.4-8.2 2.8-4.1 1.3-8.2 2.5-4.1 1.2-8.3 2.2-4.2 1-8.4 1.9-1.4-3.1-2.8-6.3-1.3-3.2-2.6-6.5-1.2-3.2-2.3-6.5-1.2-3.2-2.2-6.6 7.7 0.2 15.4-0.2z"/><path class="g" d="m372.5 646.9c3.1 1.3-0.3-0.1 0.7 3.1q0.3 1.3 0.5 2.5 0.2 1.3 0.3 2.5 0.1 1.3 0.1 2.6 0 1.2-0.1 2.5-0.2 5-0.8 9.9-0.6 5-1.6 9.9-0.9 4.9-2.2 9.7-1.3 4.8-2.9 9.5c-0.5 1.4-1 2.9-2.3 3.6q-0.3 0.1-0.7 0.2-0.3 0.1-0.6 0.2-0.4 0-0.7 0-0.4 0.1-0.7 0-4.8 0-9.5-0.5-4.7-0.6-9.4-1.6-4.6-1.1-9.1-2.7-4.4-1.6-8.7-3.7v-3.6q-6.2-1.2-12.2-2.6-6.1-1.5-12.2-3.2-6-1.8-11.9-3.7-6-2-11.9-4.2-1.3-0.5-2.7-1-1.3-0.6-2.6-1.2-1.2-0.7-2.5-1.4-1.2-0.8-2.4-1.6c-3-2.4-5.4-5.8-5.7-9.7-0.2-3.8 2.1-7.9 5.7-9q0.6-0.1 1.2-0.2 0.6 0 1.2-0.1 0.6 0 1.2 0 0.6 0.1 1.2 0.1l18 1.3q1 0.1 2 0.2 0.9 0 1.9 0 1 0 2-0.2 1-0.1 1.9-0.2 0.9-0.3 1.8-0.6 0.8-0.4 1.7-0.7 0.8-0.4 1.6-0.8 0.8-0.5 1.6-0.9 2.1-1.2 4.3-2.2 2.2-0.9 4.5-1.8 2.3-0.8 4.6-1.5 2.3-0.7 4.7-1.2c4-1 8.4-1.7 11.5-4.5 2.5-2.2 3.8-5.5 6.1-7.8 2.3-2.2 5.5-3.5 7.3-6.1 0.9-1.3 1.4-3 2.2-4.4 0.9-1.5 2.2-2.8 3.9-2.9 4.3 4 6.1 9.9 8.4 15.4 2.3 5.4 5.7 11.1 11.3 12.8"/><path class="g" d="m753.4 609.6c1.9 2.7 3.7 5.6 5.4 8.5 2.7 4.5 6.8 9.1 6.5 14.3-0.5 9.2-9.7 15.2-18.3 18.5q-9 3.6-18.5 5.7-9.5 2.1-19.2 2.6-9.7 0.6-19.4-0.4-9.7-0.9-19.1-3.4c-11.7-3.1-22.8-7.9-34-12.4q-8-3.2-16.1-6.2-8-3-16.2-5.8-8.1-2.7-16.3-5.3-8.2-2.5-16.5-4.9c-9.3-2.6-19-5-28.4-3.2-8.2 1.6-15.5 6.3-22.6 10.6-18.8 11.5-38.9 21.6-60.5 25.2-13 2.1-26.4 2-38.7 6.5-7.4 2.8-14.7 7.2-22.6 6.4-6.3-0.7-12.5-4.8-18.7-3.2-2.1 0.6-4.2 1.9-6.4 1.7-3.2-0.4-5.2-3.6-6.4-6.6-3.6-9.2-6.2-21.2-0.7-29.3 1.8-2.7 5.8-2.3 9-2.1 7.2 0.5 14.2-2.1 21-4.6l34-12.6c29.5-11.1 59.1-22.1 87.7-35.4 6.3-2.9 12.7-6 19.6-7.6 6.4-1.4 13.1-1.4 19.8-1.2 53.3 1.6 105.9 17.2 159.1 14 16.2-0.9 27.3 16.7 36.5 30.2z"/><path class="h" d="m753.4 609.6c1.9 2.7 3.7 5.6 5.4 8.5 2.7 4.5 6.8 9.1 6.5 14.3-0.5 9.2-9.7 15.2-18.3 18.5q-9 3.6-18.5 5.7-9.5 2.1-19.2 2.6-9.7 0.6-19.4-0.4-9.7-0.9-19.1-3.4c-11.7-3.1-22.8-7.9-34-12.4q-8-3.2-16.1-6.2-8-3-16.2-5.8-8.1-2.7-16.3-5.3-8.2-2.5-16.5-4.9c-9.3-2.6-19-5-28.4-3.2-8.2 1.6-15.5 6.3-22.6 10.6-18.8 11.5-38.9 21.6-60.5 25.2-13 2.1-26.4 2-38.7 6.5-7.4 2.8-14.7 7.2-22.6 6.4-6.3-0.7-12.5-4.8-18.7-3.2-2.1 0.6-4.2 1.9-6.4 1.7-3.2-0.4-5.2-3.6-6.4-6.6-3.6-9.2-6.2-21.2-0.7-29.3 1.8-2.7 5.8-2.3 9-2.1 7.2 0.5 14.2-2.1 21-4.6l34-12.6c29.5-11.1 59.1-22.1 87.7-35.4 6.3-2.9 12.7-6 19.6-7.6 6.4-1.4 13.1-1.4 19.8-1.2 53.3 1.6 105.9 17.2 159.1 14 16.2-0.9 27.3 16.7 36.5 30.2z"/><path class="m" d="m457.7 623.6c2.4-4 4.9-9.7 10.4-9.4q2.6 0.2 5.2 0.6 2.5 0.5 5 1.2 2.5 0.8 4.9 1.8 2.4 1 4.7 2.2 0.1 0.1 0.2 0.2 0.2 0.1 0.3 0.2 0.1 0.1 0.2 0.2 0.1 0.1 0.2 0.3 0.1 0.1 0.1 0.3 0 0.1 0 0.3 0 0.1 0 0.3 0 0.1-0.1 0.3c-2 8.9-10.9 14.3-15.6 22.1q-12.8-3.6-25.3-7.9c2.3 0.8 8.8-11.1 9.8-12.7z"/><path class="g" d="m482.5 636.6c0.2 1.7-1 3.3-1.6 4.9-1.7 4.9 1.6 9.9 4.1 14.5q1.1 2 2 4.1 0.9 2.2 1.6 4.4 0.7 2.2 1.1 4.5 0.4 2.3 0.6 4.6 0.1 1 0.1 1.9 0.1 1 0.2 1.9 0.2 0.9 0.3 1.8 0.2 1 0.4 1.9c1.3 3.8 4.3 7.8 2.5 11.3-1.5 2.9-5.2 3.5-8.4 3.6-7.3 0.4-14.6 0.4-21.6 2.3q-0.5 0.2-1 0.3-0.6 0.2-1.1 0.2-0.6 0.1-1.1 0.1-0.6 0-1.2 0c-2.3-0.5-3.9-2.7-6.1-3.4q-0.4-0.1-0.8-0.2-0.4-0.1-0.8-0.1-0.4-0.1-0.8-0.1-0.4 0-0.9 0.1-1.4 0-2.8 0.1-1.4 0.2-2.7 0.4-1.4 0.2-2.8 0.5-1.4 0.2-2.7 0.6c-2.2 0.5-4.2 1.2-6.4 1.7q-1.5 0.3-3 0.6-1.5 0.3-3 0.5-1.6 0.2-3.1 0.4-1.5 0.1-3.1 0.2c-9.7 0.9-19.3 1.7-29.1 2.5q-0.9 0.1-1.8 0.1-0.9 0.1-1.8 0-1 0-1.9-0.1-0.9-0.1-1.8-0.2-0.9-0.2-1.8-0.5-0.8-0.4-1.6-0.9-0.8-0.5-1.4-1.2-0.6-0.7-1.1-1.5-0.5-0.9-0.7-2-0.2-1-0.1-2.1 0.1-1 0.4-2 0.3-1.1 0.9-1.9 0.6-0.9 1.2-1.7 0.7-0.9 1.5-1.6 0.7-0.7 1.6-1.4 0.8-0.6 1.7-1.1 1.1-0.7 2.1-1.3 1.1-0.6 2.2-1.1 1.1-0.6 2.3-1.1 1.1-0.4 2.3-0.8 0.8-0.3 1.6-0.5 0.8-0.3 1.5-0.6 0.8-0.3 1.6-0.6 0.7-0.3 1.5-0.6c3-1.6 5.3-4.1 8.1-6.2 3-2.2 6.4-3.8 9.5-5.9 6.7-4.7 11.5-11.8 14.7-19.4 3.3-7.6 5.1-15.7 6.9-23.7 0.5-2.1 1.5-4.7 3.7-4.9 2.3-0.1 3.6 2.6 4.8 4.7 2.5 4.4 7.3 7 12.2 8.1 4.5 0.9 22.4-1.8 22.9 5.9z"/><path class="m" d="m650.5 500.5c1.5 1.6 1.8 4 2.2 6.3 0.2 0.9 0.1 8.8 0.2 8.8-8.9-6.9-19.7-9.7-30.2-11.7q-1.8-0.1-3.5-0.5-1.6-0.4-3.2-1.1-1.6-0.7-3.1-1.7-1.4-1-2.7-2.2-3.6-3.1-7.2-6.3-0.6-0.6-1.2-1.2-0.6-0.6-1.2-1.2-0.5-0.7-1-1.4-0.5-0.7-0.9-1.4-0.3-0.6-0.5-1.3-0.3-0.6-0.5-1.3-0.2-0.6-0.3-1.3-0.2-0.7-0.3-1.4l-2.6-11.7q-0.4-1.7-0.7-3.3-0.4-1.7-0.7-3.3-0.2-1.7-0.5-3.4-0.2-1.6-0.4-3.3-0.1-0.7-0.1-1.5 0-0.7 0-1.4 0.1-0.7 0.2-1.4 0.1-0.7 0.3-1.4c0.5-1.8 1.8-3.4 3.4-3.7 1.7-0.3 3.3 0.8 4.7 2q2.1 1.8 3.9 3.8 1.9 2 3.5 4.2 1.6 2.3 2.9 4.6 1.4 2.4 2.4 5c0.9 2 1.6 4.1 2.5 6.1q1.6 3.5 3.7 6.7 2.2 3.1 4.9 5.9 2.8 2.7 5.9 4.8 3.2 2.2 6.7 3.7c4.2 1.9 9.9 2.9 13.4 6.5z"/><path class="e" d="m650.5 500.5c1.5 1.6 1.8 4 2.2 6.3 0.2 0.9 0.1 8.8 0.2 8.8-8.9-6.9-19.7-9.7-30.2-11.7q-1.8-0.1-3.5-0.5-1.6-0.4-3.2-1.1-1.6-0.7-3.1-1.7-1.4-1-2.7-2.2-3.6-3.1-7.2-6.3-0.6-0.6-1.2-1.2-0.6-0.6-1.2-1.2-0.5-0.7-1-1.4-0.5-0.7-0.9-1.4-0.3-0.6-0.5-1.3-0.3-0.6-0.5-1.3-0.2-0.6-0.3-1.3-0.2-0.7-0.3-1.4l-2.6-11.7q-0.4-1.7-0.7-3.3-0.4-1.7-0.7-3.3-0.2-1.7-0.5-3.4-0.2-1.6-0.4-3.3-0.1-0.7-0.1-1.5 0-0.7 0-1.4 0.1-0.7 0.2-1.4 0.1-0.7 0.3-1.4c0.5-1.8 1.8-3.4 3.4-3.7 1.7-0.3 3.3 0.8 4.7 2q2.1 1.8 3.9 3.8 1.9 2 3.5 4.2 1.6 2.3 2.9 4.6 1.4 2.4 2.4 5c0.9 2 1.6 4.1 2.5 6.1q1.6 3.5 3.7 6.7 2.2 3.1 4.9 5.9 2.8 2.7 5.9 4.8 3.2 2.2 6.7 3.7c4.2 1.9 9.9 2.9 13.4 6.5z"/><ellipse class="l" cx="745.5" cy="391" rx="12.9" ry="13"/><path class="g" d="m743.1 393.2c-0.5 12.9-6.5 24.9-12.3 36.4-3.1 6.1-9 11.6-9.6 18.4q-0.4 4.2-0.9 8.3-0.6 4.1-1.3 8.2-0.7 4.1-1.6 8.2-0.9 4-2 8c-1.5 5.3-3.1 10.5-3.4 15.9-0.2 4.4 0.6 8.8-0.2 13.1-1.3 7.7-7.1 13.8-12.5 19.3q-0.7 0.8-1.4 1.5-0.7 0.6-1.5 1.2-0.7 0.6-1.5 1.2-0.8 0.5-1.7 1c-4.1 1.9-8.9 1-13.3 0-10-2.3-20.1-5.1-30.4-5.3 2.2-2.2 2.3-5.7 2.3-8.8-0.2-9.6-0.3-19.4-3.9-28.3q2.6 2.1 5.6 3.5 2.9 1.5 6.1 2.3 3.2 0.8 6.5 0.9 3.4 0.1 6.6-0.5c1.1-3.4 2.3-6.9 4.9-9.2 2.1-1.9 5.1-3.1 5.7-5.8 0.8-3.2-2.6-6.7-1.3-9.8 1.3-3 5.7-2.8 8.3-4.8 1.7-1.2 2.6-3.2 3.7-5q0.5-0.8 1-1.5 0.6-0.7 1.2-1.4 0.7-0.6 1.4-1.2 0.7-0.6 1.5-1.1 0.3-0.2 0.6-0.4 0.3-0.2 0.6-0.4 0.3-0.2 0.5-0.4 0.3-0.2 0.6-0.5c2.9-2.7 2.3-7.5 2.6-11.5 0.8-9.1 7.6-16.4 10.2-25.1 1.5-4.6 1.7-9.6 2.8-14.4 1.4-5.6 4.1-10.7 6.8-15.8q0.3-0.7 0.6-1.3 0.4-0.7 0.9-1.3 0.4-0.6 0.9-1.1 0.5-0.6 1.1-1.1c2.8-2.1 6.7-1.8 10.2-1.5 4.3 0.5 5.7 5.7 5.6 10.1z"/><path class="e" d="m743.1 393.2c-0.5 12.9-6.5 24.9-12.3 36.4-3.1 6.1-9 11.6-9.6 18.4q-0.4 4.2-0.9 8.3-0.6 4.1-1.3 8.2-0.7 4.1-1.6 8.2-0.9 4-2 8c-1.5 5.3-3.1 10.5-3.4 15.9-0.2 4.4 0.6 8.8-0.2 13.1-1.3 7.7-7.1 13.8-12.5 19.3q-0.7 0.8-1.4 1.5-0.7 0.6-1.5 1.2-0.7 0.6-1.5 1.2-0.8 0.5-1.7 1c-4.1 1.9-8.9 1-13.3 0-10-2.3-20.1-5.1-30.4-5.3 2.2-2.2 2.3-5.7 2.3-8.8-0.2-9.6-0.3-19.4-3.9-28.3q2.6 2.1 5.6 3.5 2.9 1.5 6.1 2.3 3.2 0.8 6.5 0.9 3.4 0.1 6.6-0.5c1.1-3.4 2.3-6.9 4.9-9.2 2.1-1.9 5.1-3.1 5.7-5.8 0.8-3.2-2.6-6.7-1.3-9.8 1.3-3 5.7-2.8 8.3-4.8 1.7-1.2 2.6-3.2 3.7-5q0.5-0.8 1-1.5 0.6-0.7 1.2-1.4 0.7-0.6 1.4-1.2 0.7-0.6 1.5-1.1 0.3-0.2 0.6-0.4 0.3-0.2 0.6-0.4 0.3-0.2 0.5-0.4 0.3-0.2 0.6-0.5c2.9-2.7 2.3-7.5 2.6-11.5 0.8-9.1 7.6-16.4 10.2-25.1 1.5-4.6 1.7-9.6 2.8-14.4 1.4-5.6 4.1-10.7 6.8-15.8q0.3-0.7 0.6-1.3 0.4-0.7 0.9-1.3 0.4-0.6 0.9-1.1 0.5-0.6 1.1-1.1c2.8-2.1 6.7-1.8 10.2-1.5 4.3 0.5 5.7 5.7 5.6 10.1z"/><path class="g" d="m769.5 635.4c2.1 3.9 4 8.1 4.2 12.5 0.4 8.5-5.8 16.2-13.4 20-7.6 3.8-16.4 4.3-24.9 4.5q-4.1 0-8.3 0-4.2 0-8.3-0.2-4.2-0.1-8.4-0.4-4.1-0.3-8.3-0.6c-8.2-0.8-16.7-1.9-23.7-6.4-5.5-3.4-9.6-8.7-13.6-13.8l-29.5-37.6c-5.8-7.4-11.5-14.8-16.6-22.6-3.2-4.9-6.1-10-9.6-14.7-9.4-12.1-23-20.9-30.7-34.2-9.8 18.5-25.1 33.2-40.2 47.6l-25.7 24.5-24.5 23.5c-2.2 2.1-4.6 4.3-7.6 4.9-6.6 1.1-11.5-5.8-14.5-11.8l-5.5-10.7q-0.6-0.7-0.9-1.6-0.2-0.8-0.2-1.7 0-0.9 0.4-1.8 0.4-0.8 1-1.4c26.9-36 59.3-68.6 82.1-107.3q1.6-2.8 3.4-5.6 1.8-2.7 3.8-5.4 1.9-2.6 4-5.2 2-2.6 4.2-5 0.4-0.6 0.9-1.1 0.5-0.5 1-0.9 0.6-0.4 1.2-0.8 0.6-0.4 1.2-0.6 0.6-0.2 1.2-0.3 0.6-0.1 1.2-0.1 0.6-0.1 1.2 0 0.5 0 1.1 0.1 5.1 0.6 10.1 1.7 5 1.1 9.8 2.8 4.8 1.7 9.4 3.9 4.6 2.3 9 5c13.1 8.4 23.7 20 35.7 30 18 15.1 38.9 26.4 56 42.5 9 8.4 17.1 18.3 28.2 23.5 19.8 9.5 33.5 25.5 44.1 44.8z"/><ellipse class="l" cx="753.5" cy="400" rx="10" ry="10"/><path class="m" d="m744.1 385.3c-1.1-2.6 3.3-4.6 5.2-5.9 5.5-3.6 11.6-6.2 17.1-9.8q1.4-0.9 2.8-1.8 1.3-1 2.6-2.1 1.3-1.1 2.5-2.2 1.2-1.1 2.3-2.3-0.1 1.3 0 2.6 0 1.3 0.3 2.6 0.3 1.2 0.7 2.5 0.5 1.2 1.1 2.3 0.5 0.9 1 1.7 0.6 0.8 1.2 1.6 0.6 0.8 1.2 1.5 0.6 0.8 1.3 1.5l7.7 8.7q0.9 1 1.8 2 0.9 1 1.9 1.9 1 0.9 2 1.7 1 0.9 2.1 1.6c3.1 1.9 6.8 2.9 10.2 1.9-5.8 11-16.7 18.2-27.6 24.1-13.6 7.3-28.5 13.4-43.9 12.6 3.4-3.5 5.9-7.7 8.4-11.9 2.5-4.2 5-8.5 6.4-13.2 1.3-4.8 1.3-10.1-1.1-14.4-1.6-2.7-6.1-4.7-7.2-7.2z"/><path class="e" d="m744.1 385.3c-1.1-2.6 3.3-4.6 5.2-5.9 5.5-3.6 11.6-6.2 17.1-9.8q1.4-0.9 2.8-1.8 1.3-1 2.6-2.1 1.3-1.1 2.5-2.2 1.2-1.1 2.3-2.3-0.1 1.3 0 2.6 0 1.3 0.3 2.6 0.3 1.2 0.7 2.5 0.5 1.2 1.1 2.3 0.5 0.9 1 1.7 0.6 0.8 1.2 1.6 0.6 0.8 1.2 1.5 0.6 0.8 1.3 1.5l7.7 8.7q0.9 1 1.8 2 0.9 1 1.9 1.9 1 0.9 2 1.7 1 0.9 2.1 1.6c3.1 1.9 6.8 2.9 10.2 1.9-5.8 11-16.7 18.2-27.6 24.1-13.6 7.3-28.5 13.4-43.9 12.6 3.4-3.5 5.9-7.7 8.4-11.9 2.5-4.2 5-8.5 6.4-13.2 1.3-4.8 1.3-10.1-1.1-14.4-1.6-2.7-6.1-4.7-7.2-7.2z"/><path  d="m751.5 394c-2.9 4.9-3.5 10.6 0 15 0.4 0.6 2.1 4 2.8 4q0.2 0 0.5 0 0.2-0.1 0.4-0.2 0.2-0.1 0.4-0.3 0.2-0.2 0.4-0.3c3.7-3.5 6.5-7.8 9.8-11.7 3.2-3.8 7.4-7.3 12.4-8.1 6-1 11.8 2.2 17.1 5.3 2.1 1.3 4.4 2.6 5.8 4.8q0.4 0.7 0.7 1.5 0.4 0.8 0.6 1.6 0.3 0.9 0.4 1.7 0.2 0.8 0.2 1.7c1.8 13.7 1.8 27.6 1.8 41.4-0.1 10-0.1 20.1-2 29.9-1 5.1-2.5 10-3.1 15.2q-0.2 1.6-0.4 3.3-0.1 1.7-0.2 3.4-0.1 1.7-0.1 3.5 0 1.7 0 3.4v19q0 1.3 0 2.6 0 1.3 0.1 2.6 0.1 1.3 0.3 2.6 0.1 1.3 0.4 2.6c0.9 4.2 2.8 8 4.2 12.1q0.5 1.7 0.9 3.5 0.4 1.8 0.8 3.6 0.3 1.8 0.6 3.6 0.2 1.8 0.4 3.6l2.6 19.7c0.9 6.2 1.5 13-2.3 18-1.7 2.2-3.9 4-5.6 6.3-6.5 8.4-4.4 20.3-7.1 30.6q-0.8 2.8-2 5.4-1.2 2.7-2.8 5.1-1.6 2.4-3.5 4.6-1.9 2.2-4.2 4c-4.6 3.9-10.5 7-16.5 5.9-8-1.5-12.8-9.8-15-17.7-2.1-7.9-2.9-16.5-7.7-23.1-3.8-5.4-9.8-8.9-15.2-12.7-5.4-3.9-10.7-8.9-11.9-15.5-0.5-2.9-0.2-5.8-0.5-8.7q-0.3-2.8-1.3-5.4-1.1-2.5-2.8-4.8-1.6-2.2-3.8-3.8-2.2-1.7-4.8-2.8c-4.1-1.6-9.2-2.1-11.5-5.9 6-3.4 9.9-9.6 12-16.1 2.1-6.5 2.5-13.5 2.9-20.3l1.4-22.9c0.6-10.2 0.9-20.4 5.4-29.6 2-4.1 4.5-7.9 6.6-12q1.1-2.2 2-4.3 1-2.2 1.9-4.4 0.9-2.2 1.7-4.5 0.8-2.2 1.5-4.5c3.3-9.3 6.5-18.7 9.5-28.2 1.3-4.6 2.7-9.2 5.1-13.2 2.5-4 6.1-9.2 10.7-10.1z"/><path class="g" d="m700.6 476.7c0.3-10.3 1-21.7 8.3-28.9 2.3-2.3 5.1-4 7.5-6.1 5.3-4.6 8.6-11.2 11-17.8 2.3-6.7 3.9-13.7 6.4-20.3 1.2-3 2.7-6.1 5.5-7.9 2.7-1.7 4.7-9.6 6.2-6.7 0.7 1.3 4 0.5 4 2-0.1 4.1-1.3 18.8-1.4 22.9q0.1 1.8-0.1 3.7-0.2 1.9-0.6 3.7-0.4 1.8-1 3.6-0.7 1.8-1.6 3.4l-11.7 26.2c-5.7 12.6-11.4 25.4-13.3 39.1-1.5 10.2-1.1 21.4-7 29.8q-0.5 0.6-1 1.2-0.5 0.6-0.9 1.3-0.4 0.6-0.8 1.3-0.4 0.6-0.8 1.3-0.3 0.6-0.5 1.3-0.2 0.7-0.4 1.3-0.1 0.7-0.2 1.4-0.1 0.7-0.2 1.3l-1.3 9.2-6.1-0.2c-1.3 0-0.1-59.9 0-66.1z"/><path class="g" d="m805.4 388.5c10.8 7.5 21.1 16.5 26.9 28.3 2.6 5.2 4.3 10.9 7 16 1.4 2.8 3.2 5.4 4 8.4q0.2 0.9 0.3 1.8 0.1 0.9 0.2 1.8 0.1 0.9 0 1.8 0 1 0 1.9-0.3 6.3-1 12.7-0.7 6.3-1.9 12.5-1.2 6.3-2.9 12.4-1.7 6.1-3.8 12.1-0.9 2.5-1.6 5.1-0.7 2.6-1.2 5.2-0.5 2.6-0.9 5.2-0.3 2.6-0.5 5.3c-0.4 4.5-0.8 9-1.5 13.5q-0.4 2.1-0.8 4.2-0.4 2.1-0.9 4.2-0.5 2.1-1.1 4.1-0.5 2.1-1.2 4.1-0.9 3.1-1.9 6.2-1 3-2 6-1.1 3.1-2.2 6.1-1.2 3-2.4 5.9-0.5 1-0.9 2-0.4 1-0.8 2-0.3 1.1-0.7 2.1-0.3 1-0.6 2.1c-0.8 3.5-1 7.2-2.8 10.3q-0.4 0.7-0.8 1.3-0.5 0.6-1 1.2-0.5 0.5-1.1 1.1-0.6 0.5-1.2 1c-8.9 7.5-20.2 11.5-30.5 17.1-5.9 3.3-11.6 7.2-17.8 10-6.1 2.8-13.1 4.6-19.7 3.3 2.9-11 2.9-23.2 1.9-34.6l-6.6-78.5c-0.6-7.7-1.2-15.5-0.5-23.2 1-10 4.2-19.6 5.2-29.5 0.4-4.9 0.4-9.9 2.1-14.4 5.2-13.9 24-17.7 31.4-30.5 3.2-5.5 3.9-12.1 5.5-18.2 1.7-6.1 4.9-12.5 10.8-14.8 6-2.4 12.2 1.7 17.5 5.4z"/><path class="m" d="m667.6 520.5q4 1.9 8 3.7 4.1 1.8 8.2 3.4 4.1 1.7 8.2 3.2 4.2 1.6 8.4 2.9c4.9 1.6 12 2.3 16.3 4.9 3.8 2.4 4 8.3 4 12.3q0.1 2 0.1 3.9-0.1 2-0.2 4-0.1 1.9-0.3 3.9-0.2 2-0.4 3.9-26.2-12.4-51.3-26.6c-19.1-10.8-38.6-22.7-60.4-24.9q-1.4-0.1-2.8-0.2-1.4-0.2-2.8-0.3-1.3-0.2-2.7-0.4-1.4-0.2-2.8-0.4-1.7-0.4-3.3-1-1.6-0.5-3.2-1.3-1.5-0.7-2.9-1.7-1.5-0.9-2.8-2c-3.9-3.1-7.1-7.9-6.2-12.8 0.8-4 4.2-7.2 8.1-8.6 3.8-1.5 8-1.5 12.1-1.5 6.2 0.1 12.4 0.3 18.3 1.8 6 1.5 11.7 4.4 15.8 9 1.7 1.9 3 4 4.7 6 3.4 4 8 6.8 12.5 9.5q8.5 5 17.4 9.3z"/><ellipse class="m" cx="745.5" cy="348.9" rx="38.8" ry="39.1"/><path class="g" d="m824.8 435.2c2.7 5.5 3.9 11.7 4.9 17.8 1 6.1 1.9 12.4 1.6 18.7-0.4 7.6-2.5 15-4.6 22.3q-0.7 2.9-1.7 5.7-0.9 2.8-2.3 5.4-1.4 2.6-3.1 5.1-1.7 2.4-3.7 4.6l-22.4 27.4q-1.3 1.6-2.6 3.2-1.3 1.6-2.5 3.2-1.2 1.7-2.4 3.3-1.2 1.7-2.3 3.4c-2.3 3.8-4.3 7.7-6.9 11.2-4.4 5.7-10.4 9.8-16.3 13.8-3.8 2.5-7.7 5.1-12.2 5.4-6.1 0.3-12-3.8-18-2.7-3.4 0.6-6.2 2.8-9.4 4.2-3.1 1.4-7.3 1.8-9.7-0.7q-0.3-0.4-0.6-0.9-0.3-0.4-0.5-0.9-0.3-0.4-0.5-0.9-0.2-0.5-0.4-1c-3-8-5.9-16.2-5.9-24.7-0.1-8.6 3.3-17.6 10.5-22.2q0.4-0.3 0.9-0.6 0.5-0.2 1-0.4 0.6-0.2 1.1-0.3 0.6-0.1 1.1-0.1 0.5 0 1 0.1 0.5 0.1 0.9 0.3 0.5 0.1 0.9 0.3 0.4 0.2 0.9 0.4c3.2 1.6 6.5 3.3 10 3.8 3.6 0.5 7.6-0.5 9.7-3.4 2.7-3.7 2-9.6 5.7-12.2 1.9-1.2 4.6-1.5 5.3-3.6 0.4-0.9 0.2-1.9 0.5-2.8 0.9-3.2 6-3.4 7.1-6.5 0.5-1.1 0.2-2.3 0.4-3.5 0.4-2 2.1-3.4 3.4-4.9 7.8-8.6 7.7-21.5 11.7-32.4 3.7-10.3 11.2-18.8 16-28.7 2.4-4.8 4.1-10 7.6-14 9.1-10.7 21-2.3 25.8 7.8z"/><circle class="l" cx="812" cy="264.2" r="49"/><path class="l" d="m863.8 295.8c2.7-3.4 5-7.2 6.8-11.2 1.7-4 2.9-8.2 3.5-12.5 0.6-4.4 0.7-8.8 0.1-13.1 3.9 13.1 2.2 27.3-4.8 39-7 11.8-18.7 20.1-32.1 22.9-13.4 2.9-27.4-0.1-38.5-8-11.2-8-18.5-20.2-20.2-33.8 2.2 7.5 6.2 14.3 11.7 20 5.4 5.6 12.1 9.9 19.5 12.4 7.4 2.5 15.3 3.2 23.1 2.1 7.7-1.2 15.1-4.2 21.4-8.8 3.6-2.5 6.7-5.6 9.5-9z"/><circle class="l" cx="772" cy="336.9" r="36"/><ellipse class="l" cx="741.8" cy="323.5" rx="31.9" ry="24.9"/><path class="m" d="m754 368.3c-2.1 1.8-6 0.6-8.6-2.6-2.6-3.3-3-7.3-0.9-9 2.2-1.8 6-0.6 8.6 2.6 2.7 3.3 3 7.3 0.9 9z"/><path class="n" d="m714.3 680.6c0 17.4-10.4 23.5-23.1 23.5q-0.5 0-0.9 0-0.9-0.1-1.8-0.1c-11.5-0.8-20.5-7.2-20.5-23.4 0-16.8 21.4-37.9 23.1-39.5q0.1-0.1 0.1-0.1c0 0 23.1 22.2 23.1 39.6z"/><path  d="m692.3 715.4l8.5-11.8-8.5 13.1v1.4q-0.9-0.1-1.8-0.1l0.9-17.4v-0.2l0.1-1.7-8.5-13.1 8.5 11.9 0.1 0.4 0.6-13.2-7.2-13.6 7.3 11.3 0.8-27.3v-0.1 0.1l-0.2 21.5 7.3-8.5-7.3 10.4-0.2 11.8 6.8-11.4-6.8 13.1-0.1 6.5 9.8-15.7-9.9 18z"/></svg>